<svg width="221" height="235" viewBox="0 0 221 235" fill="none" xmlns="http://www.w3.org/2000/svg">
<path d="M167.968 117.19V10.9524H5.5V230H167.968V214.667M29.3287 47.0952H50.9912M72.6536 47.0952H146.848M29.3287 62.6292H146.848M29.3287 78.8572H72.6536M95.3992 78.8572H146.848M29.3287 95.8333H112.188M125.727 95.8333H146.848M29.3287 117.19H50.9912M67.7368 117.19H102.119M118.686 117.19H130.844" stroke="#FF4400" stroke-width="10" stroke-linecap="round"/>
<rect x="50.9912" width="70.403" height="21.9048" fill="#FF4400"/>
<path fill-rule="evenodd" clip-rule="evenodd" d="M167.968 217.952C196.981 217.952 220.5 194.17 220.5 164.833C220.5 135.496 196.981 111.714 167.968 111.714C138.956 111.714 115.437 135.496 115.437 164.833C115.437 194.17 138.956 217.952 167.968 217.952ZM150.458 168.062L166.446 196.705H175.074L158.917 169.364C163.429 168.728 167.038 167.252 169.745 164.937C172.508 162.565 174.087 159.267 174.482 155.043H185.479V149.488H174.313C174.087 147.463 173.552 145.698 172.706 144.193C171.86 142.689 170.788 141.387 169.491 140.287H185.479V134.733H150.458V140.287H152.319C155.195 140.287 157.62 140.606 159.594 141.242C161.624 141.879 163.231 142.891 164.416 144.28C165.6 145.611 166.389 147.347 166.784 149.488H150.458V155.043H166.869C166.643 157.357 165.938 159.18 164.754 160.511C163.57 161.842 161.934 162.797 159.848 163.375C157.817 163.954 155.308 164.243 152.319 164.243H150.458V168.062Z" fill="#FF4400"/>
</svg>
