<svg width="222" height="223" viewBox="0 0 222 223" fill="none" xmlns="http://www.w3.org/2000/svg">
<path d="M211.073 45.7297L212.638 42.5993L212.638 42.5992L211.073 45.7297ZM184.198 32.2922L182.631 35.4221L182.633 35.4227L184.198 32.2922ZM166.167 38.3026L163.037 36.7373L163.037 36.7374L166.167 38.3026ZM172.178 56.3332L174.051 53.3766L173.901 53.2819L173.743 53.2027L172.178 56.3332ZM199.565 73.6844H203.065V71.7585L201.438 70.7278L199.565 73.6844ZM171.469 165.25H174.969V165.209L174.968 165.169L171.469 165.25ZM170.247 112.722H166.747V112.762L166.748 112.803L170.247 112.722ZM137.875 72.9822H134.375V76.4822H137.875V72.9822ZM16.9375 179.839L19.4128 182.313L20.4375 181.288V179.839H16.9375ZM7.43677 189.343L9.91164 191.818L9.91208 191.817L7.43677 189.343ZM147.376 189.343L144.9 191.817L144.901 191.818L147.376 189.343ZM137.875 179.839H134.375V181.288L135.4 182.313L137.875 179.839ZM137.875 91.3438V87.8438H134.375V91.3438H137.875ZM117.719 106.198V109.698C119.652 109.698 121.219 108.131 121.219 106.198H117.719ZM81.9565 106.198L78.7069 107.498C79.2384 108.827 80.5254 109.698 81.9565 109.698V106.198ZM70.2084 76.8279L66.9587 78.1277L66.9587 78.1278L70.2084 76.8279ZM61.4753 73.0847L62.7778 76.3333L62.7779 76.3333L61.4753 73.0847ZM57.7287 81.8212L54.4786 83.1199L54.479 83.1211L57.7287 81.8212ZM67.4797 106.198V109.698C68.6411 109.698 69.7268 109.122 70.378 108.161C71.0291 107.199 71.1607 105.977 70.7294 104.899L67.4797 106.198ZM37.0938 106.198H33.5938C33.5938 108.131 35.1608 109.698 37.0938 109.698V106.198ZM212.638 42.5992L185.763 29.1617L182.633 35.4227L209.508 48.8602L212.638 42.5992ZM185.764 29.1624C177.376 24.9638 167.212 28.3871 163.037 36.7373L169.298 39.8678C171.75 34.9637 177.713 32.9607 182.631 35.4221L185.764 29.1624ZM163.037 36.7374C158.852 45.1065 162.243 55.2789 170.612 59.4636L173.743 53.2027C168.831 50.7469 166.842 44.7791 169.298 39.8677L163.037 36.7374ZM170.304 59.2898L197.692 76.641L201.438 70.7278L174.051 53.3766L170.304 59.2898ZM196.065 73.6844V165.25H203.065V73.6844H196.065ZM174.968 165.169L173.746 112.64L166.748 112.803L167.97 165.331L174.968 165.169ZM173.747 112.722C173.747 101.139 171.114 90.3826 165.207 82.429C159.195 74.3334 150.033 69.4822 137.875 69.4822V76.4822C147.946 76.4822 154.97 80.3857 159.587 86.6024C164.309 92.9611 166.747 102.074 166.747 112.722H173.747ZM141.375 72.9822V30.875H134.375V72.9822H141.375ZM141.375 30.875C141.375 14.1237 127.755 0.5 111 0.5V7.5C123.889 7.5 134.375 17.9891 134.375 30.875H141.375ZM111 0.5H43.8125V7.5H111V0.5ZM43.8125 0.5C27.0572 0.5 13.4375 14.1237 13.4375 30.875H20.4375C20.4375 17.9891 30.9238 7.5 43.8125 7.5V0.5ZM13.4375 30.875V179.839H20.4375V30.875H13.4375ZM14.4622 177.364L4.96146 186.869L9.91208 191.817L19.4128 182.313L14.4622 177.364ZM4.96189 186.868C1.78661 190.043 0 194.352 0 198.844H7C7 196.21 8.04786 193.682 9.91164 191.818L4.96189 186.868ZM0 198.844V205.562H7V198.844H0ZM0 205.562C0 214.916 7.58364 222.5 16.9375 222.5V215.5C11.4496 215.5 7 211.05 7 205.562H0ZM16.9375 222.5H137.875V215.5H16.9375V222.5ZM137.875 222.5C147.229 222.5 154.812 214.916 154.812 205.562H147.812C147.812 211.05 143.363 215.5 137.875 215.5V222.5ZM154.812 205.562V198.844H147.812V205.562H154.812ZM154.812 198.844C154.812 194.352 153.026 190.043 149.851 186.868L144.901 191.818C146.765 193.682 147.812 196.21 147.812 198.844H154.812ZM149.851 186.869L140.35 177.364L135.4 182.313L144.9 191.817L149.851 186.869ZM141.375 179.839V91.3438H134.375V179.839H141.375ZM137.875 94.8438C143.35 94.8438 147.812 99.304 147.812 104.781H154.812C154.812 95.437 147.215 87.8438 137.875 87.8438V94.8438ZM147.812 104.781V158.531H154.812V104.781H147.812ZM147.812 158.531C147.812 178.987 164.451 195.625 184.906 195.625V188.625C168.317 188.625 154.812 175.121 154.812 158.531H147.812ZM184.906 195.625C205.362 195.625 222 178.987 222 158.531H215C215 175.121 201.496 188.625 184.906 188.625V195.625ZM222 158.531V57.75H215V158.531H222ZM222 57.75C222 51.3372 218.378 45.4695 212.638 42.5993L209.507 48.8602C212.874 50.5436 215 53.9864 215 57.75H222ZM117.719 102.698H81.9565V109.698H117.719V102.698ZM85.2062 104.898L73.458 75.528L66.9587 78.1278L78.7069 107.498L85.2062 104.898ZM73.4581 75.5281C71.3593 70.2808 65.3729 67.7509 60.1726 69.8361L62.7779 76.3333C64.4014 75.6823 66.3019 76.4858 66.9587 78.1277L73.4581 75.5281ZM60.1727 69.8361C54.9399 71.9342 52.3824 77.8739 54.4786 83.1199L60.9788 80.5225C60.3195 78.8725 61.1214 76.9974 62.7778 76.3333L60.1727 69.8361ZM54.479 83.1211L64.23 107.498L70.7294 104.899L60.9784 80.5213L54.479 83.1211ZM67.4797 102.698H37.0938V109.698H67.4797V102.698ZM40.5938 106.198V39.011H33.5938V106.198H40.5938ZM40.5938 39.011C40.5938 37.2331 42.0346 35.7922 43.8125 35.7922V28.7922C38.1687 28.7922 33.5938 33.3671 33.5938 39.011H40.5938ZM43.8125 35.7922H111V28.7922H43.8125V35.7922ZM111 35.7922C112.778 35.7922 114.219 37.2331 114.219 39.011H121.219C121.219 33.3671 116.644 28.7922 111 28.7922V35.7922ZM114.219 39.011V106.198H121.219V39.011H114.219ZM167.969 165.25C167.969 170.181 170.402 173.972 173.813 176.429C177.135 178.823 181.378 179.978 185.458 180.047C189.534 180.116 193.825 179.105 197.2 176.711C200.693 174.234 203.065 170.348 203.065 165.25H196.065C196.065 167.921 194.926 169.743 193.151 171.002C191.258 172.344 188.524 173.098 185.576 173.048C182.632 172.998 179.851 172.152 177.905 170.75C176.047 169.412 174.969 167.614 174.969 165.25H167.969Z" fill="#FF4400"/>
<path d="M77.4062 51.03C81.1169 51.03 84.125 48.0219 84.125 44.3113C84.125 40.6006 81.1169 37.5925 77.4062 37.5925C73.6956 37.5925 70.6875 40.6006 70.6875 44.3113C70.6875 48.0219 73.6956 51.03 77.4062 51.03Z" fill="#FF4400"/>
<path d="M104.281 57.7488C107.992 57.7488 111 54.7407 111 51.03C111 47.3194 107.992 44.3113 104.281 44.3113C100.571 44.3113 97.5625 47.3194 97.5625 51.03C97.5625 54.7407 100.571 57.7488 104.281 57.7488Z" fill="#FF4400"/>
<path d="M50.5312 57.7488C54.2419 57.7488 57.25 54.7407 57.25 51.03C57.25 47.3194 54.2419 44.3113 50.5312 44.3113C46.8206 44.3113 43.8125 47.3194 43.8125 51.03C43.8125 54.7407 46.8206 57.7488 50.5312 57.7488Z" fill="#FF4400"/>
</svg>
