<svg width="215" height="215" viewBox="0 0 215 215" fill="none" xmlns="http://www.w3.org/2000/svg">
<path fill-rule="evenodd" clip-rule="evenodd" d="M99.8214 0C87.0996 0 76.7857 10.3134 76.7857 23.0357V46.0714H23.0357C10.3134 46.0714 0 56.3848 0 69.1071V191.964C0 204.686 10.3134 215 23.0357 215H115.179C127.9 215 138.214 204.686 138.214 191.964V168.929H191.964C204.686 168.929 215 158.615 215 145.893V23.0357C215 10.3134 204.686 0 191.964 0H99.8214ZM122.857 168.929H99.8214C87.0996 168.929 76.7857 158.615 76.7857 145.893V61.4286H23.0357C18.795 61.4286 15.3571 64.8664 15.3571 69.1071V191.964C15.3571 196.204 18.795 199.643 23.0357 199.643H115.179C119.419 199.643 122.857 196.204 122.857 191.964V168.929ZM92.1429 23.0357C92.1429 18.795 95.5813 15.3571 99.8214 15.3571H191.964C196.204 15.3571 199.643 18.795 199.643 23.0357V145.893C199.643 150.133 196.204 153.571 191.964 153.571H99.8214C95.5813 153.571 92.1429 150.133 92.1429 145.893V23.0357Z" fill="#FF4400"/>
<path fill-rule="evenodd" clip-rule="evenodd" d="M107.5 53.7501C107.5 49.5094 110.938 46.0715 115.179 46.0715H176.607C180.847 46.0715 184.286 49.5094 184.286 53.7501C184.286 57.9908 180.847 61.4287 176.607 61.4287H115.179C110.938 61.4287 107.5 57.9908 107.5 53.7501Z" fill="#FF4400"/>
<path fill-rule="evenodd" clip-rule="evenodd" d="M107.5 84.4642C107.5 80.2241 110.938 76.7856 115.179 76.7856H145.893C150.133 76.7856 153.571 80.2241 153.571 84.4642C153.571 88.7043 150.133 92.1428 145.893 92.1428H115.179C110.938 92.1428 107.5 88.7043 107.5 84.4642Z" fill="#FF4400"/>
</svg>
