<svg width="50" height="50" viewBox="0 0 50 50" fill="none" xmlns="http://www.w3.org/2000/svg">
<path d="M8.33333 37.5001L18.75 25.0001M41.6667 37.5001L31.25 25.0001M6.25 16.6667L21.3021 26.7013C22.6385 27.5924 23.3067 28.038 24.029 28.2109C24.6673 28.364 25.3327 28.364 25.971 28.2109C26.6933 28.038 27.3615 27.5924 28.6979 26.7013L43.75 16.6667M12.9167 39.5834H37.0833C39.4169 39.5834 40.5838 39.5834 41.475 39.1292C42.259 38.7299 42.8965 38.0924 43.2958 37.3084C43.75 36.4172 43.75 35.2503 43.75 32.9167V17.0834C43.75 14.7499 43.75 13.5831 43.2958 12.6918C42.8965 11.9078 42.259 11.2704 41.475 10.8709C40.5838 10.4167 39.4169 10.4167 37.0833 10.4167H12.9167C10.5831 10.4167 9.41633 10.4167 8.52504 10.8709C7.74102 11.2704 7.1036 11.9078 6.70415 12.6918C6.25 13.5831 6.25 14.7499 6.25 17.0834V32.9167C6.25 35.2503 6.25 36.4172 6.70415 37.3084C7.1036 38.0924 7.74102 38.7299 8.52504 39.1292C9.41633 39.5834 10.5831 39.5834 12.9167 39.5834Z" stroke="white" stroke-width="4" stroke-linecap="round" stroke-linejoin="round"/>
</svg>
