<svg width="50" height="50" viewBox="0 0 50 50" fill="none" xmlns="http://www.w3.org/2000/svg">
<path fill-rule="evenodd" clip-rule="evenodd" d="M25 37.5C31.9035 37.5 37.5 31.9035 37.5 25C37.5 18.0964 31.9035 12.5 25 12.5C18.0964 12.5 12.5 18.0964 12.5 25C12.5 31.9035 18.0964 37.5 25 37.5ZM25 33.3333C29.6023 33.3333 33.3333 29.6023 33.3333 25C33.3333 20.3976 29.6023 16.6667 25 16.6667C20.3976 16.6667 16.6667 20.3976 16.6667 25C16.6667 29.6023 20.3976 33.3333 25 33.3333Z" fill="white"/>
<path d="M37.4998 10.4167C36.3492 10.4167 35.4165 11.3495 35.4165 12.5001C35.4165 13.6507 36.3492 14.5834 37.4998 14.5834C38.6505 14.5834 39.5832 13.6507 39.5832 12.5001C39.5832 11.3495 38.6505 10.4167 37.4998 10.4167Z" fill="white"/>
<path fill-rule="evenodd" clip-rule="evenodd" d="M3.44591 8.90838C2.0835 11.5823 2.0835 15.0826 2.0835 22.0833V27.9166C2.0835 34.9172 2.0835 38.4176 3.44591 41.0914C4.64433 43.4435 6.55658 45.3557 8.90862 46.5541C11.5825 47.9166 15.0828 47.9166 22.0835 47.9166H27.9168C34.9174 47.9166 38.4179 47.9166 41.0916 46.5541C43.4437 45.3557 45.356 43.4435 46.5543 41.0914C47.9168 38.4176 47.9168 34.9172 47.9168 27.9166V22.0833C47.9168 15.0826 47.9168 11.5823 46.5543 8.90838C45.356 6.55633 43.4437 4.64408 41.0916 3.44567C38.4179 2.08325 34.9174 2.08325 27.9168 2.08325H22.0835C15.0828 2.08325 11.5825 2.08325 8.90862 3.44567C6.55658 4.64408 4.64433 6.55633 3.44591 8.90838ZM27.9168 6.24992H22.0835C18.5144 6.24992 16.0882 6.25317 14.2128 6.40638C12.3861 6.55563 11.4519 6.82615 10.8002 7.15819C9.23222 7.95715 7.95739 9.23198 7.15843 10.8C6.82639 11.4517 6.55587 12.3858 6.40662 14.2126C6.25341 16.0879 6.25016 18.5142 6.25016 22.0833V27.9166C6.25016 31.4857 6.25341 33.9118 6.40662 35.7872C6.55587 37.6141 6.82639 38.5482 7.15843 39.1999C7.95739 40.7678 9.23222 42.0426 10.8002 42.8416C11.4519 43.1737 12.3861 43.4443 14.2128 43.5935C16.0882 43.7466 18.5144 43.7499 22.0835 43.7499H27.9168C31.486 43.7499 33.912 43.7466 35.7874 43.5935C37.6143 43.4443 38.5485 43.1737 39.2002 42.8416C40.7681 42.0426 42.0429 40.7678 42.8418 39.1999C43.1739 38.5482 43.4445 37.6141 43.5937 35.7872C43.7468 33.9118 43.7502 31.4857 43.7502 27.9166V22.0833C43.7502 18.5142 43.7468 16.0879 43.5937 14.2126C43.4445 12.3858 43.1739 11.4517 42.8418 10.8C42.0429 9.23198 40.7681 7.95715 39.2002 7.15819C38.5485 6.82615 37.6143 6.55563 35.7874 6.40638C33.912 6.25317 31.486 6.24992 27.9168 6.24992Z" fill="white"/>
</svg>
