<svg width="50" height="50" viewBox="0 0 50 50" fill="none" xmlns="http://www.w3.org/2000/svg">
<path d="M7.8125 30.4688C7.8125 23.2812 11.4062 15.7813 15.625 15.7813C17.9688 15.7813 19.8438 17.1875 22.8125 21.4062C20 25.7812 18.2812 28.4375 18.2812 28.4375C14.5312 34.375 13.2812 35.625 11.25 35.625C9.21875 35.7812 7.8125 33.9062 7.8125 30.4688ZM32.3438 27.8125L29.6875 23.4375C29.0625 22.3438 28.2813 21.25 27.6563 20.3125C30 16.7188 31.875 14.8438 34.2188 14.8438C38.9062 14.8438 42.6562 21.875 42.6562 30.625C42.6562 33.9062 41.5625 35.7812 39.375 35.7812C37.1875 35.7812 36.4062 34.375 32.3438 27.8125ZM25.625 17.1875C22.1875 12.6562 19.2188 10.9375 15.7813 10.9375C8.59375 10.9375 3.125 20.4688 3.125 30.4688C3.125 36.7188 6.09375 40.625 11.0938 40.625C14.6875 40.625 17.1875 38.9062 21.875 30.7813C21.875 30.7813 23.75 27.3438 25.1562 25C25.625 25.7812 26.0938 26.5625 26.5625 27.5L28.75 31.25C32.9688 38.4375 35.3125 40.7812 39.5312 40.7812C44.375 40.7812 47.0312 36.7188 47.0312 30.3125C46.875 19.6875 41.25 10.9375 34.5312 10.9375C30.9375 10.9375 28.125 13.75 25.625 17.1875Z" fill="white"/>
</svg>
